<svg width="8" height="8" viewBox="0 0 8 8" fill="none" xmlns="http://www.w3.org/2000/svg">
<path d="M4.32601 1.04654C3.76042 1.04654 3.20752 1.21426 2.73725 1.52849C2.26697 1.84271 1.90044 2.28934 1.68399 2.81188C1.46755 3.33442 1.41092 3.90941 1.52126 4.46414C1.6316 5.01887 1.90396 5.52842 2.3039 5.92835C2.70383 6.32829 3.21338 6.60065 3.76811 6.71099C4.32284 6.82134 4.89783 6.7647 5.42037 6.54826C5.94291 6.33182 6.38954 5.96528 6.70377 5.49501C7.01799 5.02473 7.18571 4.47184 7.18571 3.90624C7.18491 3.14805 6.88337 2.42114 6.34724 1.88501C5.81112 1.34889 5.08421 1.04734 4.32601 1.04654ZM5.58153 3.40194L4.04169 4.94178C4.02126 4.96224 3.997 4.97846 3.9703 4.98953C3.94359 5.0006 3.91497 5.0063 3.88606 5.0063C3.85715 5.0063 3.82852 5.0006 3.80182 4.98953C3.77511 4.97846 3.75085 4.96224 3.73042 4.94178L3.07049 4.28185C3.02922 4.24057 3.00603 4.18459 3.00603 4.12622C3.00603 4.06784 3.02922 4.01186 3.07049 3.97058C3.11177 3.92931 3.16775 3.90612 3.22613 3.90612C3.2845 3.90612 3.34048 3.92931 3.38176 3.97058L3.88606 4.47516L5.27026 3.09068C5.2907 3.07024 5.31496 3.05403 5.34167 3.04296C5.36837 3.0319 5.39699 3.02621 5.4259 3.02621C5.4548 3.02621 5.48342 3.0319 5.51012 3.04296C5.53683 3.05403 5.56109 3.07024 5.58153 3.09068C5.60197 3.11111 5.61818 3.13538 5.62924 3.16208C5.6403 3.18878 5.646 3.21741 5.646 3.24631C5.646 3.27521 5.6403 3.30383 5.62924 3.33054C5.61818 3.35724 5.60197 3.38151 5.58153 3.40194Z" fill="#94A3B8"/>
</svg>
