<svg width="7" height="6" viewBox="0 0 7 6" fill="none" xmlns="http://www.w3.org/2000/svg">
<path d="M3.35762 0.0465393C2.6286 0.0473399 1.92966 0.337298 1.41417 0.852796C0.898669 1.36829 0.608711 2.06723 0.60791 2.79625V5.10601C0.60791 5.22269 0.654262 5.3346 0.73677 5.41711C0.819277 5.49961 0.931181 5.54597 1.04786 5.54597H3.35762C4.08689 5.54597 4.78629 5.25626 5.30196 4.74059C5.81763 4.22492 6.10734 3.52552 6.10734 2.79625C6.10734 2.06698 5.81763 1.36758 5.30196 0.851912C4.78629 0.33624 4.08689 0.0465393 3.35762 0.0465393ZM2.14775 3.23621C2.08249 3.23621 2.01869 3.21685 1.96443 3.1806C1.91017 3.14434 1.86788 3.09281 1.8429 3.03251C1.81793 2.97222 1.81139 2.90587 1.82412 2.84187C1.83686 2.77786 1.86828 2.71907 1.91443 2.67292C1.96057 2.62677 2.01937 2.59535 2.08338 2.58262C2.14738 2.56988 2.21373 2.57642 2.27402 2.60139C2.33432 2.62637 2.38585 2.66866 2.42211 2.72292C2.45836 2.77718 2.47771 2.84098 2.47771 2.90624C2.47771 2.99375 2.44295 3.07768 2.38107 3.13956C2.31919 3.20144 2.23526 3.23621 2.14775 3.23621ZM3.35762 3.23621C3.29236 3.23621 3.22857 3.21685 3.1743 3.1806C3.12004 3.14434 3.07775 3.09281 3.05277 3.03251C3.0278 2.97222 3.02127 2.90587 3.034 2.84187C3.04673 2.77786 3.07816 2.71907 3.1243 2.67292C3.17045 2.62677 3.22924 2.59535 3.29325 2.58262C3.35726 2.56988 3.4236 2.57642 3.4839 2.60139C3.54419 2.62637 3.59572 2.66866 3.63198 2.72292C3.66824 2.77718 3.68759 2.84098 3.68759 2.90624C3.68759 2.99375 3.65282 3.07768 3.59094 3.13956C3.52906 3.20144 3.44514 3.23621 3.35762 3.23621ZM4.5675 3.23621C4.50224 3.23621 4.43844 3.21685 4.38418 3.1806C4.32992 3.14434 4.28762 3.09281 4.26265 3.03251C4.23767 2.97222 4.23114 2.90587 4.24387 2.84187C4.2566 2.77786 4.28803 2.71907 4.33418 2.67292C4.38032 2.62677 4.43912 2.59535 4.50312 2.58262C4.56713 2.56988 4.63348 2.57642 4.69377 2.60139C4.75406 2.62637 4.8056 2.66866 4.84185 2.72292C4.87811 2.77718 4.89746 2.84098 4.89746 2.90624C4.89746 2.99375 4.8627 3.07768 4.80082 3.13956C4.73894 3.20144 4.65501 3.23621 4.5675 3.23621Z" fill="#94A3B8"/>
</svg>
