<svg width="9" height="10" viewBox="0 0 9 10" fill="none" xmlns="http://www.w3.org/2000/svg">
<path d="M7.52314 4.99997C7.52314 5.10499 7.48142 5.2057 7.40717 5.27996C7.33291 5.35421 7.2322 5.39593 7.12718 5.39593H4.61944V7.90367C4.61944 8.00868 4.57773 8.1094 4.50347 8.18365C4.42921 8.25791 4.3285 8.29963 4.22348 8.29963C4.11847 8.29963 4.01776 8.25791 3.9435 8.18365C3.86924 8.1094 3.82752 8.00868 3.82752 7.90367V5.39593H1.31979C1.21477 5.39593 1.11406 5.35421 1.0398 5.27996C0.965545 5.2057 0.923828 5.10499 0.923828 4.99997C0.923828 4.89496 0.965545 4.79424 1.0398 4.71999C1.11406 4.64573 1.21477 4.60401 1.31979 4.60401H3.82752V2.09628C3.82752 1.99126 3.86924 1.89055 3.9435 1.81629C4.01776 1.74203 4.11847 1.70032 4.22348 1.70032C4.3285 1.70032 4.42921 1.74203 4.50347 1.81629C4.57773 1.89055 4.61944 1.99126 4.61944 2.09628V4.60401H7.12718C7.2322 4.60401 7.33291 4.64573 7.40717 4.71999C7.48142 4.79424 7.52314 4.89496 7.52314 4.99997Z" fill="white"/>
</svg>
