<svg width="18" height="18" viewBox="0 0 18 18" fill="none" xmlns="http://www.w3.org/2000/svg">
<path d="M16.0802 8.28671L9.18772 15.1792C8.34333 16.0236 7.19811 16.498 6.00397 16.498C4.80983 16.498 3.6646 16.0236 2.82022 15.1792C1.97583 14.3348 1.50146 13.1896 1.50146 11.9955C1.50146 10.8013 1.97583 9.65609 2.82022 8.81171L9.71272 1.91921C10.2756 1.35629 11.0391 1.04004 11.8352 1.04004C12.6313 1.04004 13.3948 1.35629 13.9577 1.91921C14.5206 2.48213 14.8369 3.24561 14.8369 4.04171C14.8369 4.8378 14.5206 5.60129 13.9577 6.16421L7.05772 13.0567C6.77626 13.3382 6.39451 13.4963 5.99647 13.4963C5.59842 13.4963 5.21668 13.3382 4.93522 13.0567C4.65376 12.7752 4.49563 12.3935 4.49563 11.9955C4.49563 11.5974 4.65376 11.2157 4.93522 10.9342L11.3027 4.57421" stroke="#6D7280" stroke-width="1.25" stroke-linecap="round" stroke-linejoin="round"/>
</svg>
